<svg xmlns="http://www.w3.org/2000/svg" width="301" height="11" viewBox="0 0 301 11">
  <g id="Path_15" data-name="Path 15" fill="#707070" stroke-linecap="round">
    <path d="M 296 10.5 L 5 10.5 C 2.518692255020142 10.5 0.5 8.481307983398438 0.5 6 L 0.5 5 C 0.5 2.518692255020142 2.518692255020142 0.5 5 0.5 L 296 0.5 C 298.4812927246094 0.5 300.5 2.518692255020142 300.5 5 L 300.5 6 C 300.5 8.481307983398438 298.4812927246094 10.5 296 10.5 Z" stroke="none"/>
    <path d="M 5 1 C 2.79437255859375 1 1 2.794384956359863 1 5 L 1 6 C 1 8.205615043640137 2.79437255859375 10 5 10 L 296 10 C 298.2056274414063 10 300 8.205615043640137 300 6 L 300 5 C 300 2.794384956359863 298.2056274414063 1 296 1 L 5 1 M 5 0 L 296 0 C 298.7614135742188 0 301 2.238576889038086 301 5 L 301 6 C 301 8.761423110961914 298.7614135742188 11 296 11 L 5 11 C 2.23858642578125 11 0 8.761423110961914 0 6 L 0 5 C 0 2.238576889038086 2.23858642578125 0 5 0 Z" stroke="none" fill="#707070"/>
  </g>
  
  <g id="Rectangle_40" data-name="Rectangle 40" fill="#fff" stroke="#fff" stroke-linecap="round" stroke-width="1">
    <rect width="14" height="11" rx="5" stroke="none"/>
    <rect x="0.5" y="0.5" width="13" height="10" rx="4.5" fill="none"/>
  </g>

</svg>
